<?xml version="1.0" encoding="UTF-8"?>
<!DOCTYPE svg PUBLIC "-//W3C//DTD SVG 1.1//EN" "http://www.w3.org/Graphics/SVG/1.1/DTD/svg11.dtd">
<!-- Creator: CorelDRAW -->
<svg xmlns="http://www.w3.org/2000/svg" xml:space="preserve" width="300.478mm" height="68.2424mm" version="1.1" style="shape-rendering:geometricPrecision; text-rendering:geometricPrecision; image-rendering:optimizeQuality; fill-rule:evenodd; clip-rule:evenodd"
viewBox="0 0 30051.7 6825.13"
 xmlns:xlink="http://www.w3.org/1999/xlink"
 xmlns:xodm="http://www.corel.com/coreldraw/odm/2003">
 <defs>
  <style type="text/css">
   <![CDATA[
    .fil4 {fill:#1782C3}
    .fil1 {fill:#1981C2}
    .fil0 {fill:#1981C4}
    .fil3 {fill:#FFC939}
    .fil2 {fill:#FFCA39}
   ]]>
  </style>
 </defs>
 <g id="Capa_x0020_1">
  <metadata id="CorelCorpID_0Corel-Layer"/>
  <g id="_2460084805872">
   <path class="fil0" d="M5943.51 2828.03c0,-962.28 1459.81,-938.94 1459.81,-17.38 0,289.32 -164.43,530.7 -424.07,636.02 -273.82,111.08 -620.77,60.14 -814.58,-127.29 -132.11,-127.78 -221.17,-289.13 -221.17,-491.35zm-903.7 -156.4c0,344.62 -6.22,476.85 133.87,804.57 126.82,296.58 390.1,567.64 676.75,713.54 418.35,212.96 999,227.06 1396.83,-75.35 59.96,-45.55 96.95,-99.79 156.06,-139.37 0,278.07 5.75,468.26 -107.04,640.22 -198.59,302.74 -764.1,311.69 -1033.52,135.4 -81.14,-53.11 -189.57,-159.14 -214.97,-254.26 -101.23,23.58 -666.13,373.13 -782.04,434.46 46.45,199.35 345.47,439.34 533.02,544.45 236.05,132.3 603.08,202.84 892.05,202.84 623.64,0 1199.77,-262.7 1454.2,-770.25 69.44,-138.56 144.63,-402.52 144.63,-602.67l0 -2954.37 -886.32 0 0 295.43c-113.32,-75.88 -218.35,-268.88 -591.87,-346.56 -303.64,-63.14 -605.62,-31.55 -867.94,85.9 -329.89,147.68 -588.98,387.77 -747.68,712.12 -63.55,129.92 -156.02,383.51 -156.02,573.89z"/>
   <path class="fil0" d="M21827.65 2897.54c0,-1025.58 1425.04,-1025.58 1425.04,0 0,361.11 -271.46,695.15 -625.63,695.15l-173.77 0c-354.18,0 -625.63,-334.04 -625.63,-695.15zm-921.09 -34.75c0,583.37 324.31,1189.75 781.8,1425.33 342.65,176.44 434.43,173.51 799.67,173.51 206.68,0 460.07,-95.86 618.79,-215.36 59.82,-45.04 86.6,-92.51 145.86,-132.22 0,52.84 -1.08,105.3 -1.5,157.91 -0.49,64.78 -13.4,120.16 53.64,120.16l816.82 0c40.05,0 52.14,-12.1 52.14,-52.13l0 -2989.15 -921.09 0 0 260.68c-150.02,-100.48 -114.28,-130.84 -364.95,-243.3 -349.75,-156.94 -811.09,-120.59 -1135.79,45.94 -533.37,273.58 -845.39,855.94 -845.39,1448.63z"/>
   <path class="fil1" d="M10375.09 2080.74c186.68,0 319.36,43.91 429.98,126.16 62.52,46.49 91.52,75.45 135.95,142.1 14.63,21.92 40.6,65.64 51.15,87.87 20.67,43.6 24.94,74.8 43.31,113.09l-1286.02 0c66.71,-286.32 323.66,-469.22 625.64,-469.22zm-1581.48 782.04c0,927.22 701.31,1598.84 1564.08,1598.84 415.18,0 592.16,-2.96 956.08,-190.89 79.07,-40.83 201.26,-125.05 265.13,-186.72 66.83,-64.56 195.02,-159.34 203.85,-265.38 -72.15,-16.81 -118.59,-56.47 -185.2,-92.86l-527.34 -306.86c-118.5,79.35 -223.08,225.93 -538.73,225.93 -400.44,0 -585.92,-61.89 -764.65,-399.7l2137.56 0c170.98,-733.89 -190.42,-1547.89 -851.54,-1842.15 -981.87,-437.07 -2259.24,183.19 -2259.24,1459.81z"/>
   <path class="fil1" d="M28501.05 2080.74c169.32,0 309,51.89 410.27,128.48 91.24,68.96 203.81,201.75 215.37,340.74l-1268.64 0c22.29,-268 325.11,-469.22 642.99,-469.22zm-1598.83 677.77c0,517.36 62.75,784.94 367.39,1161.94 262.12,324.37 748.04,541.17 1161.94,541.17 366.58,0 651.74,-3.02 978.91,-185.45 172.95,-96.43 391.39,-271.01 480.9,-440.19l-682.51 -394.96c-34.48,-23.64 -10.12,-4.82 -30.03,-22.12 -35.19,23.58 -70.89,53.45 -108.86,82.29 -341.18,259.05 -1095.02,171.04 -1194.54,-256.06l2120.22 0c125.19,-260.9 15.05,-833.83 -80.85,-1048.76 -66.69,-149.49 -111.51,-238.64 -212,-361.51l-94.27 -114.28c-33.37,-39.46 -65.07,-54.44 -103.34,-87.81 -674.18,-587.4 -1765.84,-448.15 -2292.66,254.27 -172.56,230.06 -310.29,552.35 -310.29,871.47z"/>
   <path class="fil2" d="M13364.21 1611.52l0 -260.68 -921.06 0 0 2989.15c0,40.03 12.08,52.13 52.14,52.13l868.92 0 0 -1685.74c0,-711.84 827.16,-737.6 1020.16,-325 95.59,204.34 57.33,1063.37 57.33,1350.35l-1.02 522.39c-1.17,73.79 -17.2,138.01 53.16,138.01l816.8 0c40.05,0 52.14,-12.1 52.14,-52.13l0 -1755.27c0,-414.95 -99.3,-692.77 -285.13,-931.37 -135.11,-173.44 -354.43,-299.1 -570.46,-350.61 -327.59,-78.1 -716.43,-26.25 -974.6,164.33 -69.25,51.14 -109.17,104.81 -168.37,144.45z"/>
   <path class="fil1" d="M2572.05 1628.9l0 -278.07 -903.71 0 0 3041.28 903.71 0 0 -1598.85c0,-905.41 867.3,-759.28 1025.97,-417.7 87.46,188.32 51.5,1081.35 51.5,1356.16l-1.01 522.39c-1.17,73.79 -17.19,138.01 53.15,138.01l816.8 0c40.05,0 52.13,-12.1 52.13,-52.13l0 -1859.54c0,-1255.63 -1400.81,-1539.2 -1998.53,-851.54z"/>
   <path class="fil3" d="M15971.02 2480.44l0 1911.67 868.94 0c67.04,0 54.13,-55.38 53.64,-120.16l-1.5 -1235.38c0,-222.67 -23.39,-485.99 46.23,-648.9 152.06,-355.83 728.32,-349.16 917.29,-71.33 87.3,128.35 113.96,304.87 113.96,511.69l0 1564.08 903.7 0 0 -3041.28 -903.7 0 0 278.07c-47.96,-35.14 -23.07,-27.71 -65.2,-73.85 -214.97,-235.54 -703.69,-340.3 -1051.26,-260.56 -542.36,124.44 -882.1,584.4 -882.1,1185.95z"/>
   <path class="fil2" d="M12460.53 6060.47l692.63 297.96c711.86,286.73 1722.56,466.7 2505.04,466.7l924.17 -66.42c558.75,-80.92 1070.33,-196.95 1583.44,-397.73 125.34,-49.07 243.48,-91.75 359.62,-144.37l347.86 -156.14 -364.96 -764.67c-35.38,8.25 -754.39,337.28 -1282.32,472.94 -1065.78,273.86 -2038.53,268.53 -3104.09,3.26 -302.53,-75.31 -708.91,-213.13 -983.36,-337.43l-313.07 -138.77c-56.1,105.99 -358.71,689.57 -364.95,764.67z"/>
   <path class="fil4" d="M25060.09 777.34l0 573.49 -469.23 0 0 886.32 469.23 0 0 938.45c0,874.96 264.53,1233.88 1129.61,1233.88 96.18,0 160.39,-3.7 230.81,-12.48 239.6,-29.9 186.27,173.38 186.27,-839.06 -263.63,0 -625.63,52.11 -625.63,-260.68l0 -1060.11 625.63 0 0 -886.32 -625.63 0 0 -834.18 -688.63 197.69c-62.15,20.26 -171.43,57.93 -232.43,63z"/>
   <path class="fil4" d="M-0 4339.98c0,40.03 12.08,52.13 52.14,52.13l921.08 0 0 -4240.41 -973.22 0 0 4188.29z"/>
   <polygon class="fil0" points="19498.89,4392.11 20402.58,4392.11 20402.58,1350.84 19498.89,1350.84 "/>
   <path class="fil0" d="M19394.61 551.41c0,241.93 234,538.74 486.61,538.74 182.68,0 291.8,-2.28 447.04,-143.82 226.34,-206.42 215.26,-600.89 -7.92,-799.26 -164.72,-146.42 -378.18,-192.73 -592.68,-96.78 -195.12,87.27 -333.05,304.48 -333.05,501.13z"/>
  </g>
 </g>
</svg>
