<?xml version="1.0" encoding="UTF-8"?>
<!DOCTYPE svg PUBLIC "-//W3C//DTD SVG 1.1//EN" "http://www.w3.org/Graphics/SVG/1.1/DTD/svg11.dtd">
<!-- Creator: CorelDRAW -->
<svg xmlns="http://www.w3.org/2000/svg" xml:space="preserve" width="338.667mm" height="76.9156mm" version="1.1" style="shape-rendering:geometricPrecision; text-rendering:geometricPrecision; image-rendering:optimizeQuality; fill-rule:evenodd; clip-rule:evenodd"
viewBox="0 0 33866.66 7691.56"
 xmlns:xlink="http://www.w3.org/1999/xlink"
 xmlns:xodm="http://www.corel.com/coreldraw/odm/2003">
 <defs>
  <style type="text/css">
   <![CDATA[
    .fil4 {fill:#1782C3}
    .fil1 {fill:#1981C2}
    .fil0 {fill:#1981C4}
    .fil3 {fill:#FFC939}
    .fil2 {fill:#FFCA39}
   ]]>
  </style>
 </defs>
 <g id="Capa_x0020_1">
  <metadata id="CorelCorpID_0Corel-Layer"/>
  <g id="_2460083450272">
   <path class="fil0" d="M6698.02 3187.04c0,-1084.44 1645.13,-1058.14 1645.13,-19.59 0,326.04 -185.3,598.07 -477.9,716.76 -308.57,125.19 -699.57,67.78 -917.98,-143.44 -148.88,-143.99 -249.25,-325.83 -249.25,-553.73zm-1018.42 -176.26c0,388.38 -7.01,537.4 150.87,906.72 142.91,334.23 439.62,639.71 762.65,804.13 471.47,239.99 1125.82,255.88 1574.16,-84.92 67.57,-51.33 109.26,-112.47 175.87,-157.06 0,313.36 6.48,527.7 -120.63,721.5 -223.8,341.17 -861.1,351.25 -1164.73,152.58 -91.44,-59.85 -213.64,-179.34 -242.26,-286.54 -114.08,26.58 -750.69,420.49 -881.32,489.61 52.35,224.66 389.33,495.11 600.69,613.57 266.01,149.08 679.63,228.59 1005.28,228.59 702.81,0 1352.08,-296.07 1638.82,-868.04 78.25,-156.14 162.98,-453.62 162.98,-679.18l0 -3329.42 -998.83 0 0 332.94c-127.71,-85.52 -246.07,-303.03 -667,-390.56 -342.19,-71.15 -682.5,-35.55 -978.13,96.81 -371.77,166.43 -663.74,437 -842.59,802.53 -71.62,146.4 -175.83,432.19 -175.83,646.74z"/>
   <path class="fil0" d="M24598.59 3265.37c0,-1155.78 1605.94,-1155.78 1605.94,0 0,406.95 -305.91,783.4 -705.05,783.4l-195.83 0c-399.14,0 -705.06,-376.45 -705.06,-783.4zm-1038.01 -39.16c0,657.42 365.48,1340.78 881.04,1606.26 386.16,198.85 489.58,195.54 901.19,195.54 232.91,0 518.47,-108.03 697.35,-242.7 67.41,-50.75 97.59,-104.26 164.37,-148.99 0,59.54 -1.22,118.66 -1.68,177.95 -0.56,73 -15.11,135.41 60.44,135.41l920.5 0c45.13,0 58.76,-13.64 58.76,-58.75l0 -3368.61 -1038.02 0 0 293.77c-169.07,-113.23 -128.79,-147.44 -411.28,-274.18 -394.14,-176.86 -914.05,-135.9 -1279.97,51.77 -601.08,308.3 -952.7,964.6 -952.7,1632.53z"/>
   <path class="fil1" d="M11692.17 2344.89c210.38,0 359.91,49.47 484.56,142.16 70.46,52.4 103.15,85.04 153.2,160.14 16.5,24.71 45.76,73.98 57.65,99.03 23.29,49.13 28.1,84.29 48.81,127.46l-1449.28 0c75.18,-322.67 364.75,-528.79 705.06,-528.79zm-1782.23 881.32c0,1044.93 790.34,1801.8 1762.64,1801.8 467.88,0 667.32,-3.33 1077.45,-215.13 89.1,-46.01 226.81,-140.92 298.79,-210.43 75.32,-72.75 219.78,-179.57 229.72,-299.07 -81.3,-18.94 -133.63,-63.63 -208.71,-104.65l-594.28 -345.82c-133.54,89.43 -251.4,254.62 -607.12,254.62 -451.27,0 -660.29,-69.75 -861.72,-450.45l2408.91 0c192.69,-827.05 -214.59,-1744.39 -959.64,-2076.01 -1106.51,-492.54 -2546.04,206.46 -2546.04,1645.14z"/>
   <path class="fil1" d="M32119.16 2344.89c190.81,0 348.23,58.47 462.36,144.78 102.82,77.72 229.67,227.36 242.7,384.01l-1429.68 0c25.12,-302.03 366.38,-528.79 724.62,-528.79zm-1801.8 763.81c0,583.03 70.71,884.58 414.03,1309.44 295.4,365.55 843,609.87 1309.45,609.87 413.11,0 734.48,-3.4 1103.17,-209 194.91,-108.67 441.08,-305.41 541.96,-496.06l-769.16 -445.1c-38.86,-26.65 -11.4,-5.44 -33.84,-24.94 -39.67,26.58 -79.9,60.24 -122.69,92.74 -384.5,291.95 -1234.03,192.76 -1346.17,-288.57l2389.37 0c141.08,-294.03 16.95,-939.68 -91.12,-1181.89 -75.15,-168.47 -125.67,-268.93 -238.9,-407.4l-106.25 -128.8c-37.61,-44.46 -73.33,-61.34 -116.47,-98.96 -759.76,-661.96 -1990,-505.03 -2583.7,286.56 -194.47,259.26 -349.68,622.48 -349.68,982.11z"/>
   <path class="fil2" d="M15060.75 1816.09l0 -293.77 -1037.99 0 0 3368.61c0,45.11 13.63,58.75 58.76,58.75l979.23 0 0 -1899.74c0,-802.21 932.17,-831.24 1149.67,-366.27 107.73,230.28 64.61,1198.37 64.61,1521.77l-1.15 588.71c-1.32,83.15 -19.39,155.53 59.91,155.53l920.48 0c45.13,0 58.75,-13.64 58.75,-58.75l0 -1978.09c0,-467.63 -111.91,-780.72 -321.32,-1049.6 -152.25,-195.47 -399.42,-337.08 -642.88,-395.12 -369.18,-88.01 -807.39,-29.58 -1098.32,185.2 -78.04,57.62 -123.03,118.11 -189.75,162.77z"/>
   <path class="fil1" d="M2898.56 1835.69l0 -313.37 -1018.42 0 0 3427.36 1018.42 0 0 -1801.82c0,-1020.34 977.41,-855.67 1156.22,-470.73 98.57,212.23 58.04,1218.62 58.04,1528.31l-1.13 588.71c-1.32,83.15 -19.39,155.53 59.88,155.53l920.49 0c45.13,0 58.75,-13.64 58.75,-58.75l0 -2095.6c0,-1415.04 -1578.65,-1734.6 -2252.25,-959.64z"/>
   <path class="fil3" d="M17998.48 2795.33l0 2154.35 979.26 0c75.54,0 60.99,-62.41 60.44,-135.41l-1.69 -1392.21c0,-250.93 -26.37,-547.69 52.09,-731.29 171.36,-400.98 820.79,-393.47 1033.74,-80.38 98.38,144.64 128.43,343.58 128.43,576.65l0 1762.64 1018.42 0 0 -3427.36 -1018.42 0 0 313.37c-54.04,-39.61 -26,-31.23 -73.47,-83.23 -242.26,-265.44 -793.03,-383.5 -1184.72,-293.64 -611.21,140.23 -994.08,658.59 -994.08,1336.51z"/>
   <path class="fil2" d="M14042.36 6829.83l780.55 335.78c802.24,323.13 1941.24,525.95 2823.05,525.95l1041.48 -74.85c629.69,-91.19 1206.21,-221.95 1784.45,-448.23 141.25,-55.28 274.39,-103.4 405.27,-162.68l392.02 -175.97 -411.29 -861.75c-39.87,9.3 -850.16,380.1 -1445.11,532.98 -1201.07,308.63 -2297.3,302.63 -3498.14,3.68 -340.94,-84.87 -798.9,-240.18 -1108.2,-380.26l-352.8 -156.4c-63.22,119.45 -404.25,777.11 -411.28,861.75z"/>
   <path class="fil4" d="M28241.38 876.02l0 646.3 -528.79 0 0 998.83 528.79 0 0 1057.58c0,986.04 298.12,1390.52 1273.01,1390.52 108.39,0 180.75,-4.16 260.11,-14.06 270.02,-33.7 209.92,195.39 209.92,-945.58 -297.1,0 -705.05,58.73 -705.05,-293.77l0 -1194.69 705.05 0 0 -998.83 -705.05 0 0 -940.07 -776.05 222.78c-70.04,22.83 -193.2,65.28 -261.94,70.99z"/>
   <path class="fil4" d="M-0.01 4890.93c0,45.11 13.63,58.75 58.76,58.75l1038.01 0 0 -4778.72 -1096.77 0 0 4719.97z"/>
   <polygon class="fil0" points="21974.2,4949.68 22992.62,4949.68 22992.62,1522.32 21974.2,1522.32 "/>
   <path class="fil0" d="M21856.69 621.41c0,272.65 263.7,607.14 548.38,607.14 205.88,0 328.85,-2.57 503.79,-162.09 255.07,-232.61 242.58,-677.16 -8.93,-900.73 -185.63,-164.99 -426.18,-217.18 -667.9,-109.06 -219.89,98.35 -375.34,343.14 -375.34,564.74z"/>
  </g>
 </g>
</svg>
