<?xml version="1.0" encoding="UTF-8"?>
<!DOCTYPE svg PUBLIC "-//W3C//DTD SVG 1.1//EN" "http://www.w3.org/Graphics/SVG/1.1/DTD/svg11.dtd">
<!-- Creator: CorelDRAW -->
<svg xmlns="http://www.w3.org/2000/svg" xml:space="preserve" width="338.666mm" height="338.662mm" version="1.1" style="shape-rendering:geometricPrecision; text-rendering:geometricPrecision; image-rendering:optimizeQuality; fill-rule:evenodd; clip-rule:evenodd"
viewBox="0 0 33866.64 33866.18"
 xmlns:xlink="http://www.w3.org/1999/xlink"
 xmlns:xodm="http://www.corel.com/coreldraw/odm/2003">
 <defs>
  <style type="text/css">
   <![CDATA[
    .fil0 {fill:#1982C4}
    .fil1 {fill:#FFFEFD}
   ]]>
  </style>
 </defs>
 <g id="Capa_x0020_1">
  <metadata id="CorelCorpID_0Corel-Layer"/>
  <g id="_2460388881824">
   <path class="fil0" d="M8631.16 20606.79c196.36,49.06 641.71,290.46 865.25,391.08 851.29,383.11 1957.73,761.92 2860.33,997.19 3106.33,809.75 6004.3,773.99 9108.17,13.51 981.06,-240.37 1950.91,-598.36 2864.02,-992.96 297.27,-128.5 600.54,-295.55 882.78,-406.72 173.41,187.98 1098.88,2160.32 1110.62,2202.65 -1719.4,728.58 -2227.65,1058.65 -4219.16,1575.35 -3451.06,895.38 -6881.91,859.3 -10329.76,-0.82 -948.87,-236.72 -2339.81,-700.17 -3227.89,-1115.06 -301.25,-140.77 -712.85,-349.86 -1000.84,-454.09l1086.48 -2210.13zm9212.65 -2691.35c0,-1337.32 0,-2674.65 0,-4011.97 0,-1350.99 -106.62,-2403.32 499.38,-3497.03 797.3,-1439.01 2653.7,-1935.97 4172.61,-1349.76 836.01,322.68 993.29,694.58 1162.43,823.58l3 -806.09 2649.64 0 -0.37 8842.83 -2651.9 0c0,-1384.16 0,-2768.37 0,-4152.54 0,-663.87 48.08,-1255.25 -259.54,-1786.32 -572.78,-988.78 -2222.48,-919.69 -2711.06,-5.87 -282.82,529.01 -211.71,1178.2 -211.71,1826.93 0,1372.62 0,2745.21 0,4117.88l-2652.48 -1.64zm-7651.21 -8042.12c404.83,-367.1 544.66,-594.38 1193.47,-828.1 1588.24,-572.04 3283.22,-83.75 4154.55,1390 574.42,971.62 482.17,2269.44 482.17,3503.02 0,581.32 37.03,3676.4 -11.58,3978.6l-2628.37 -5.18c-51.32,-300.55 -12.24,-3512.55 -12.24,-4112.46 0,-974.78 160.48,-2574.23 -1610.49,-2529.94 -1662.8,41.55 -1571.91,1552.98 -1571.91,2564.71 0,568.88 38.47,3810.23 -14.36,4083.07l-2637.91 -7.51 0.95 -8834.5 2650.5 6.53 5.22 791.76zm-10183.98 23992.86l33858.02 0 0 -33866.18 -33866.64 0 8.62 33866.18z"/>
   <path class="fil1" d="M10192.6 9873.32l-5.22 -791.76 -2650.5 -6.53 -0.95 8834.5 2637.91 7.51c52.83,-272.84 14.36,-3514.19 14.36,-4083.07 0,-1011.73 -90.89,-2523.16 1571.91,-2564.71 1770.97,-44.29 1610.49,1555.16 1610.49,2529.94 0,599.91 -39.08,3811.91 12.24,4112.46l2628.37 5.18c48.61,-302.2 11.58,-3397.28 11.58,-3978.6 0,-1233.58 92.25,-2531.4 -482.17,-3503.02 -871.33,-1473.75 -2566.31,-1962.04 -4154.55,-1390 -648.81,233.72 -788.64,461 -1193.47,828.1z"/>
   <path class="fil1" d="M17843.81 17915.44l2652.48 1.64c0,-1372.67 0,-2745.26 0,-4117.88 0,-648.73 -71.11,-1297.92 211.71,-1826.93 488.58,-913.82 2138.28,-982.91 2711.06,5.87 307.62,531.07 259.54,1122.45 259.54,1786.32 0,1384.17 0,2768.38 0,4152.54l2651.9 0 0.37 -8842.83 -2649.64 0 -3 806.09c-169.14,-129 -326.42,-500.9 -1162.43,-823.58 -1518.91,-586.21 -3375.31,-89.25 -4172.61,1349.76 -606,1093.71 -499.38,2146.04 -499.38,3497.03 0,1337.32 0,2674.65 0,4011.97z"/>
   <path class="fil1" d="M7544.68 22816.92c287.99,104.23 699.59,313.32 1000.84,454.09 888.08,414.89 2279.02,878.34 3227.89,1115.06 3447.85,860.12 6878.7,896.2 10329.76,0.82 1991.51,-516.7 2499.76,-846.77 4219.16,-1575.35 -11.74,-42.33 -937.21,-2014.67 -1110.62,-2202.65 -282.24,111.17 -585.51,278.22 -882.78,406.72 -913.11,394.6 -1882.96,752.59 -2864.02,992.96 -3103.87,760.48 -6001.84,796.24 -9108.17,-13.51 -902.6,-235.27 -2009.04,-614.08 -2860.33,-997.19 -223.54,-100.62 -668.89,-342.02 -865.25,-391.08l-1086.48 2210.13z"/>
  </g>
 </g>
</svg>
