<?xml version="1.0" encoding="UTF-8"?>
<!DOCTYPE svg PUBLIC "-//W3C//DTD SVG 1.1//EN" "http://www.w3.org/Graphics/SVG/1.1/DTD/svg11.dtd">
<!-- Creator: CorelDRAW -->
<svg xmlns="http://www.w3.org/2000/svg" xml:space="preserve" width="338.666mm" height="338.786mm" version="1.1" style="shape-rendering:geometricPrecision; text-rendering:geometricPrecision; image-rendering:optimizeQuality; fill-rule:evenodd; clip-rule:evenodd"
viewBox="0 0 33866.64 33878.59"
 xmlns:xlink="http://www.w3.org/1999/xlink"
 xmlns:xodm="http://www.corel.com/coreldraw/odm/2003">
 <defs>
  <style type="text/css">
   <![CDATA[
    .fil0 {fill:#FFCA3A}
    .fil1 {fill:#FFFEFD}
   ]]>
  </style>
 </defs>
 <g id="Capa_x0020_1">
  <metadata id="CorelCorpID_0Corel-Layer"/>
  <g id="_2460081510960">
   <path class="fil0" d="M8639.04 20609.35c217.55,67.49 599.59,280.19 844.81,389.52 5022.05,2238.69 10896.17,2097.8 15727.86,-383.03 76.65,62.77 1063.37,2022.14 1108.04,2204 -762.94,321.29 -1110.5,532.14 -2014.83,871.9 -713.27,267.96 -1442.88,505.29 -2215.63,705.22 -4205.9,1088.09 -8451.51,800.01 -12495.13,-691.79 -775.75,-286.19 -1614.93,-728.71 -2047.18,-880.24l1092.06 -2215.58zm9206.82 -2688.03c-31.94,-1317.16 -2.3,-2672.8 -2.3,-3994.23 0,-1276.65 -81.82,-2491.67 491.95,-3505.04 432.25,-763.39 1243.64,-1445.46 2426.97,-1568.66 1185.67,-123.49 2170.38,208.14 2914.36,1034.59l1.15 -809.08 2653.29 0 -3.49 8843.49 -2646.89 0c-38.47,-1357.97 -2.71,-2770.34 -2.71,-4134.35 0,-1057.13 45.37,-2479.4 -1594.4,-2512.98 -684.28,-14.04 -1148.31,286.68 -1383.51,711.83 -278.05,502.58 -203.67,1218.93 -203.67,1835.92 0,1346.44 42.25,2761.68 -3.24,4099.62l-2647.51 -1.11zm-7641.19 -8042.57c105.05,-95.74 132.03,-168.53 234,-262.01 78.5,-71.97 169.35,-138.6 271.24,-215.78 621.06,-470.31 1636.65,-635.01 2435.14,-543.71 1189.08,135.93 1994.43,835.44 2400.21,1598.14 589.36,1107.66 477.74,2153.88 477.74,3506.43 0,1311.25 21.02,2639.63 -1.4,3960.08l-2649.68 -10.51c-25.83,-1365.28 -1.6,-2755.28 -1.6,-4123.35 0,-666.14 71.88,-1302.35 -226.95,-1834.77 -232.77,-414.68 -723.37,-697.67 -1383.84,-677.63 -1651.09,50.17 -1571.2,1526.82 -1571.2,2547.17 0,1356.62 25.9,2738.65 -1.81,4099.58l-2650.96 -15.44 9.86 -8827.44 2638.35 3.21 20.9 796.03zm-10204.67 23999.84l33866.64 0 0 -33878.59 -33858.02 0 -8.62 33878.59z"/>
   <path class="fil1" d="M17845.86 17921.32l2647.51 1.11c45.49,-1337.94 3.24,-2753.18 3.24,-4099.62 0,-616.99 -74.38,-1333.34 203.67,-1835.92 235.2,-425.15 699.23,-725.87 1383.51,-711.83 1639.77,33.58 1594.4,1455.85 1594.4,2512.98 0,1364.01 -35.76,2776.38 2.71,4134.35l2646.89 0 3.49 -8843.49 -2653.29 0 -1.15 809.08c-743.98,-826.45 -1728.69,-1158.08 -2914.36,-1034.59 -1183.33,123.2 -1994.72,805.27 -2426.97,1568.66 -573.77,1013.37 -491.95,2228.39 -491.95,3505.04 0,1321.43 -29.64,2677.07 2.3,3994.23z"/>
   <path class="fil1" d="M10204.67 9878.75l-20.9 -796.03 -2638.35 -3.21 -9.86 8827.44 2650.96 15.44c27.71,-1360.93 1.81,-2742.96 1.81,-4099.58 0,-1020.35 -79.89,-2497 1571.2,-2547.17 660.47,-20.04 1151.07,262.95 1383.84,677.63 298.83,532.42 226.95,1168.63 226.95,1834.77 0,1368.07 -24.23,2758.07 1.6,4123.35l2649.68 10.51c22.42,-1320.45 1.4,-2648.83 1.4,-3960.08 0,-1352.55 111.62,-2398.77 -477.74,-3506.43 -405.78,-762.7 -1211.13,-1462.21 -2400.21,-1598.14 -798.49,-91.3 -1814.08,73.4 -2435.14,543.71 -101.89,77.18 -192.74,143.81 -271.24,215.78 -101.97,93.48 -128.95,166.27 -234,262.01z"/>
   <path class="fil1" d="M7546.98 22824.93c432.25,151.53 1271.43,594.05 2047.18,880.24 4043.62,1491.8 8289.23,1779.88 12495.13,691.79 772.75,-199.93 1502.36,-437.26 2215.63,-705.22 904.33,-339.76 1251.89,-550.61 2014.83,-871.9 -44.67,-181.86 -1031.39,-2141.23 -1108.04,-2204 -4831.69,2480.83 -10705.81,2621.72 -15727.86,383.03 -245.22,-109.33 -627.26,-322.03 -844.81,-389.52l-1092.06 2215.58z"/>
  </g>
 </g>
</svg>
